<?xml version="1.0" encoding="utf-8"?>
<svg width="1073" height="175" viewBox="0 0 1349.662 179.262" fill="none" xmlns="http://www.w3.org/2000/svg" xmlns:bx="https://boxy-svg.com">
  <defs>
    <style bx:fonts="Space Grotesk">@import url(https://fonts.googleapis.com/css2?family=Space+Grotesk%3Aital%2Cwght%400%2C300..700&amp;display=swap);</style>
  </defs>
  <text style="fill: rgb(246, 246, 246); font-family: 'Space Grotesk'; font-size: 36.0388px; font-weight: 700; letter-spacing: -1.4px; line-height: 57.662px; white-space: pre; transform-box: fill-box; transform-origin: 44.6561px 17.8582px;" transform="matrix(5.489856, -0.003601, 0.003579, 5.457272, 133.0898, -18.001473)" x="245.578" y="78.643">Vorper Team</text>
  <path d="M 385.992 802.825 L 727.971 460.995 L 463.641 460.995 L 511.551 148.111 L 205.919 516.129 L 435.557 516.129 L 385.992 802.825 Z M 217.482 1012.333 L 283.565 626.397 L -46.846 626.397 L 547.897 -90.342 L 680.061 -90.342 L 613.978 350.728 L 1010.476 350.728 L 349.648 1012.333 L 217.482 1012.333 Z M 466.946 474.779 Z" style=""/>
  <path d="M 59.312 141.161 L 106.388 87.103 L 69.999 87.103 L 76.596 37.622 L 34.521 95.822 L 66.132 95.822 L 59.312 141.161 Z M 36.114 174.293 L 45.209 113.26 L -0.277 113.26 L 81.599 -0.088 L 99.793 -0.088 L 90.694 69.666 L 145.278 69.666 L 54.308 174.293 L 36.114 174.293 Z M 70.454 89.281 Z" style="fill: rgb(141, 206, 255);"/>
</svg>